<?xml version="1.0" encoding="UTF-8"?>
<!DOCTYPE svg PUBLIC "-//W3C//DTD SVG 1.1//EN" "http://www.w3.org/Graphics/SVG/1.1/DTD/svg11.dtd">
<svg xmlns="http://www.w3.org/2000/svg" version="1.1" width="512px" height="512px" style="shape-rendering:geometricPrecision; text-rendering:geometricPrecision; image-rendering:optimizeQuality; fill-rule:evenodd; clip-rule:evenodd" xmlns:xlink="http://www.w3.org/1999/xlink">
<g><path style="opacity:0.962" fill="#01a3d4" d="M -0.5,86.5 C 18.5,86.5 37.5,86.5 56.5,86.5C 68.6893,129.237 81.1893,171.904 94,214.5C 107.195,172.076 119.695,129.41 131.5,86.5C 186.187,86.048 240.853,86.548 295.5,88C 323.866,94.5423 336.7,112.376 334,141.5C 331.438,156.391 323.272,166.891 309.5,173C 331.704,179.728 342.704,194.728 342.5,218C 342.102,241.029 331.436,257.029 310.5,266C 301.891,267.706 293.225,269.039 284.5,270C 250.168,270.5 215.835,270.667 181.5,270.5C 181.667,215.832 181.5,161.166 181,106.5C 161.735,160.796 142.568,215.129 123.5,269.5C 103.511,270.5 83.5111,270.833 63.5,270.5C 42.7437,210.227 21.4103,150.227 -0.5,90.5C -0.5,89.1667 -0.5,87.8333 -0.5,86.5 Z M 237.5,125.5 C 246.839,125.334 256.173,125.5 265.5,126C 277.757,127.953 282.59,135.12 280,147.5C 278.86,152.64 275.694,155.807 270.5,157C 259.555,158.379 248.555,158.879 237.5,158.5C 237.5,147.5 237.5,136.5 237.5,125.5 Z M 237.5,194.5 C 248.172,194.333 258.839,194.5 269.5,195C 285.62,197.406 290.787,206.24 285,221.5C 282.76,224.402 279.927,226.569 276.5,228C 263.561,229.422 250.561,229.922 237.5,229.5C 237.5,217.833 237.5,206.167 237.5,194.5 Z"/></g>
<g><path style="opacity:0.926" fill="#000000" d="M 511.5,414.5 C 511.5,417.167 511.5,419.833 511.5,422.5C 498.05,425.986 485.05,424.82 472.5,419C 465.968,413.767 462.801,406.933 463,398.5C 462.5,367.168 462.333,335.835 462.5,304.5C 447.496,304.333 432.496,304.5 417.5,305C 429.763,321.776 434.763,340.609 432.5,361.5C 399.833,361.5 367.167,361.5 334.5,361.5C 335.312,386.803 348.145,401.137 373,404.5C 390.607,403.385 401.774,394.385 406.5,377.5C 414.84,378.084 423.174,378.751 431.5,379.5C 426.774,403.393 412.441,417.893 388.5,423C 362.705,428.268 340.872,421.435 323,402.5C 311.287,384.561 306.954,364.894 310,343.5C 312.372,315.227 326.872,296.394 353.5,287C 359.59,285.635 365.757,284.801 372,284.5C 402.156,285.448 432.323,285.782 462.5,285.5C 462.5,275.833 462.5,266.167 462.5,256.5C 470.5,256.5 478.5,256.5 486.5,256.5C 486.5,266.167 486.5,275.833 486.5,285.5C 493.833,285.5 501.167,285.5 508.5,285.5C 508.5,291.833 508.5,298.167 508.5,304.5C 501.167,304.5 493.833,304.5 486.5,304.5C 486.333,334.502 486.5,364.502 487,394.5C 487.973,398.406 490.473,400.573 494.5,401C 499.258,401.212 503.925,401.378 508.5,401.5C 509.405,405.977 510.405,410.311 511.5,414.5 Z M 369.5,304.5 C 392.664,305.997 405.331,318.331 407.5,341.5C 383.5,341.5 359.5,341.5 335.5,341.5C 337.524,320.365 348.857,308.032 369.5,304.5 Z"/></g>
<g><path style="opacity:0.917" fill="#000000" d="M 244.5,284.5 C 261.909,283.022 276.742,288.356 289,300.5C 294.799,310.364 297.466,321.031 297,332.5C 297.5,362.165 297.667,391.831 297.5,421.5C 289.167,421.5 280.833,421.5 272.5,421.5C 272.965,388.126 272.465,354.792 271,321.5C 266.011,311.16 257.678,305.827 246,305.5C 229.382,306.45 218.715,314.783 214,330.5C 212.547,360.797 212.047,391.13 212.5,421.5C 204.5,421.5 196.5,421.5 188.5,421.5C 188.5,376.833 188.5,332.167 188.5,287.5C 195.833,287.5 203.167,287.5 210.5,287.5C 210.334,292.844 210.501,298.177 211,303.5C 219.466,292.352 230.633,286.018 244.5,284.5 Z"/></g>
<g><path style="opacity:0.884" fill="#000000" d="M 153.5,392.5 C 165.182,391.664 171.848,396.997 173.5,408.5C 170.294,422.437 161.96,426.937 148.5,422C 141.137,415.058 139.97,407.225 145,398.5C 147.322,395.605 150.155,393.605 153.5,392.5 Z"/></g>
</svg>
